<?xml version="1.0" encoding="UTF-8" standalone="no"?>
<svg width="109px" height="32px" viewBox="0 0 109 32" version="1.1" xmlns="http://www.w3.org/2000/svg" xmlns:xlink="http://www.w3.org/1999/xlink">
    <!-- Generator: sketchtool 3.8.2 (29753) - http://www.bohemiancoding.com/sketch -->
    <title>44FAA834-71FB-40CC-AD32-E66AAAB0C8D6</title>
    <desc>Created with sketchtool.</desc>
    <defs></defs>
    <g id="Symbols" stroke="none" stroke-width="1" fill="none" fill-rule="evenodd">
        <g id="components-/-Header+VCDB+vehicles" transform="translate(-36.000000, -16.000000)" fill="#FFFFFF">
            <g id="Header">
                <g id="autocare-white" transform="translate(36.000000, 16.000000)">
                    <path d="M6.06690468,28.3259833 L4.78522061,25.0081262 L3.47949244,28.3259833 L6.06690468,28.3259833 L6.06690468,28.3259833 Z M4.18545391,23.2792034 L5.46713798,23.2792034 L9.05371613,31.4358202 L7.3606108,31.4358202 L6.58452071,29.5695255 L2.97456635,29.5695255 L2.22118457,31.4358202 L0.563477504,31.4358202 L4.18545391,23.2792034 L4.18545391,23.2792034 Z" id="Shape"></path>
                    <path d="M17.2180236,25.0316756 C16.9007751,24.593394 16.3364067,24.3853738 15.7600162,24.3853738 C15.0780988,24.3853738 14.3955135,24.6856294 14.3955135,25.434633 C14.3955135,27.0706663 18.3467605,26.1371919 18.3467605,29.0403169 C18.3467605,30.7908266 16.9361734,31.6431862 15.3011746,31.6431862 C14.2666104,31.6431862 13.2547546,31.3324642 12.5728372,30.53767 L13.69022,29.4779443 C14.0548888,30.0189277 14.6780317,30.3303039 15.3365729,30.3303039 C16.0184902,30.3303039 16.7952482,29.9613624 16.7952482,29.2130129 C16.7952482,27.4278331 12.8440012,28.4535428 12.8440012,25.5386431 C12.8440012,23.8561651 14.3721373,23.0724915 15.9129634,23.0724915 C16.7832262,23.0724915 17.653489,23.3138734 18.3000081,23.9137305 L17.2180236,25.0316756 L17.2180236,25.0316756 Z" id="Shape"></path>
                    <path d="M27.121521,25.0316756 C26.8042725,24.593394 26.239904,24.3853738 25.6641814,24.3853738 C24.9815962,24.3853738 24.2990109,24.6856294 24.2990109,25.434633 C24.2990109,27.0706663 28.2509258,26.1371919 28.2509258,29.0403169 C28.2509258,30.7908266 26.8396707,31.6431862 25.2053399,31.6431862 C24.1701078,31.6431862 23.1589198,31.3324642 22.4763346,30.53767 L23.5943852,29.4779443 C23.9583861,30.0189277 24.5815291,30.3303039 25.2407381,30.3303039 C25.9219876,30.3303039 26.6987456,29.9613624 26.6987456,29.2130129 C26.6987456,27.4278331 22.7474986,28.4535428 22.7474986,25.5386431 C22.7474986,23.8561651 24.2756347,23.0724915 25.8164607,23.0724915 C26.6867235,23.0724915 27.5569863,23.3138734 28.2035055,23.9137305 L27.121521,25.0316756 L27.121521,25.0316756 Z" id="Shape"></path>
                    <path d="M36.6730394,30.3303039 C38.401543,30.3303039 39.5429699,29.0403169 39.5429699,27.3009277 C39.5429699,25.6773233 38.401543,24.3853738 36.6730394,24.3853738 C34.95589,24.3853738 33.8151311,25.6773233 33.8151311,27.3009277 C33.8151311,29.0403169 34.95589,30.3303039 36.6730394,30.3303039 M36.6610174,23.0724915 C39.2597838,23.0260467 41.09515,24.7320742 41.09515,27.3473724 C41.09515,29.8926764 39.2597838,31.5967415 36.6610174,31.6431862 C34.0976493,31.6431862 32.2629509,29.9391212 32.2629509,27.393163 C32.2629509,24.7778648 34.0976493,23.0724915 36.6610174,23.0724915" id="Shape"></path>
                    <path d="M50.4636662,25.1925969 C49.8525453,24.558724 49.287509,24.3853738 48.7117864,24.3853738 C46.9939691,24.3853738 45.853878,25.6766691 45.853878,27.3009277 C45.853878,29.0403169 46.9939691,30.3303039 48.7117864,30.3303039 C49.3823496,30.3303039 50.0288687,30.0313566 50.5812151,29.3399183 L51.8047926,30.1922779 C51.0514108,31.2055588 49.9233419,31.6431862 48.6997644,31.6431862 C46.1363962,31.6431862 44.30103,29.9384671 44.30103,27.393163 C44.30103,24.7778648 46.1363962,23.0724915 48.6997644,23.0724915 C49.8285012,23.0724915 50.7929368,23.4296583 51.6164472,24.3624785 L50.4636662,25.1925969 L50.4636662,25.1925969 Z" id="Shape"></path>
                    <rect id="Rectangle-path" x="55.8942932" y="23.2792034" width="1.48205157" height="8.15661678"></rect>
                    <path d="M66.9258595,28.3259833 L65.6441755,25.0081262 L64.3391152,28.3259833 L66.9258595,28.3259833 L66.9258595,28.3259833 Z M65.0444088,23.2792034 L66.3267607,23.2792034 L69.9133389,31.4358202 L68.2202335,31.4358202 L67.4441435,29.5695255 L63.8335212,29.5695255 L63.0808073,31.4358202 L61.4231002,31.4358202 L65.0444088,23.2792034 L65.0444088,23.2792034 Z" id="Shape"></path>
                    <polygon id="Shape" points="74.621975 24.5927399 72.0706289 24.5927399 72.0706289 23.2792034 78.6553727 23.2792034 78.6553727 24.5927399 76.1040266 24.5927399 76.1040266 31.4358202 74.621975 31.4358202"></polygon>
                    <rect id="Rectangle-path" x="82.7856146" y="23.2792034" width="1.48205157" height="8.15661678"></rect>
                    <path d="M92.7365323,30.3303039 C94.4650359,30.3303039 95.6057948,29.0403169 95.6057948,27.3009277 C95.6057948,25.6773233 94.4650359,24.3853738 92.7365323,24.3853738 C91.0193828,24.3853738 89.8786239,25.6773233 89.8786239,27.3009277 C89.8786239,29.0403169 91.0193828,30.3303039 92.7365323,30.3303039 M92.7245102,23.0724915 C95.3239445,23.0260467 97.157975,24.7320742 97.157975,27.3473724 C97.157975,29.8926764 95.3239445,31.5967415 92.7245102,31.6431862 C90.1611421,31.6431862 88.3264437,29.9391212 88.3264437,27.393163 C88.3264437,24.7778648 90.1611421,23.0724915 92.7245102,23.0724915" id="Shape"></path>
                    <polygon id="Shape" points="100.782623 23.2792034 102.746224 23.2792034 106.78029 29.3392642 106.802998 29.3628136 106.78029 29.3628136 106.802998 29.3392642 106.802998 23.2792034 108.28505 23.2792034 108.28505 31.4358202 106.403599 31.4358202 102.287383 25.1808222 102.264675 25.1808222 102.264675 31.4358202 100.782623 31.4358202"></polygon>
                    <path d="M93.0497734,8.40706589 L93.0497734,5.1363077 L92.8580885,5.1363077 C91.5744008,5.1363077 88.8527423,5.7963467 87.6926145,7.30416623 L87.6926145,5.29264994 L83.4588494,5.29264994 L83.4588494,20.7515615 L87.6926145,20.7515615 L87.6926145,12.4889721 C87.6926145,9.96002188 90.7014664,8.40706589 92.8580885,8.40706589 L93.0497734,8.40706589 L93.0497734,8.40706589 Z" id="Shape"></path>
                    <path d="M64.6309838,15.9415845 C63.9711069,16.7932899 62.9392143,17.2819412 61.7997911,17.2819412 C58.9859636,17.2819412 57.467178,15.046705 57.467178,12.9436075 C57.467178,10.8418183 58.9859636,8.60723629 61.7997911,8.60723629 C62.6954338,8.60723629 63.6318179,9.09523341 64.5815598,10.0574905 L64.7178097,10.1948623 L67.6465146,7.32575323 L67.5249583,7.1936146 C66.14643,5.6962615 64.0599365,4.83801455 61.7997911,4.83801455 C56.8360204,4.83801455 53.232745,8.24679874 53.232745,12.9436075 C53.232745,17.6404163 56.8360204,21.0498546 61.7997911,21.0498546 C63.1990241,21.0498546 65.8679192,20.4748553 67.4868885,18.8911542 L67.6177953,18.7622863 L64.7692374,15.7636552 L64.6309838,15.9415845 L64.6309838,15.9415845 Z" id="Shape"></path>
                    <path d="M97.3897334,11.323928 C97.3837224,11.3520566 97.2548193,12.0199454 97.2581587,12.725775 C97.262834,13.4839368 97.3890655,14.257144 97.3944086,14.2891974 L97.4211243,14.4475021 L108.442004,14.4475021 L108.442004,13.1954559 C108.442004,7.89224855 105.532668,4.59859505 100.848744,4.59859505 C95.7627493,4.59859505 92.0713122,8.09241895 92.0713122,12.9063209 C92.0713122,17.7189145 95.7627493,21.2120842 100.848744,21.2120842 C103.640531,21.2120842 105.936743,20.1484336 107.675933,18.0512235 L107.801496,17.9001145 L104.665745,15.5785303 L104.548864,15.7198271 C103.405433,17.1013953 102.104381,17.7444264 100.453352,17.7444264 C98.2706825,17.7444264 96.6423626,16.3360379 96.4012537,14.2381736 C96.399918,14.2296696 96.3030737,13.3897389 96.3030737,12.738858 C96.3030737,12.0899396 96.399918,11.3919598 96.4012537,11.38411 C96.6937903,9.18616049 98.1477904,7.8739323 100.290387,7.8739323 C102.581255,7.8739323 103.994514,9.10242908 104.105384,11.1715107 L97.4191206,11.1715107 L97.3897334,11.323928 L97.3897334,11.323928 Z" id="Shape"></path>
                    <path d="M75.1295726,4.62476112 C72.3591581,4.62476112 69.9320398,5.52356547 68.2957053,7.15632796 L68.1634628,7.28912074 L70.4964083,9.57472656 L70.6319903,9.45043775 C71.7099674,8.46070632 73.1940226,7.8929027 74.7027899,7.8929027 C76.8427147,7.8929027 78.1203914,8.90487529 78.1203914,10.5997822 L78.1237309,14.5855281 C78.1237309,16.6820841 76.6236463,17.9341303 74.1110379,17.9341303 C72.8761062,17.9341303 71.5470018,17.3591311 71.5470018,16.0959642 C71.5470018,14.6215065 73.3716818,13.9045563 77.1252329,13.9045563 L77.3169178,13.9045563 L77.3229288,10.8300436 L77.1312439,10.8300436 C74.4216075,10.8300436 67.2244071,10.8300436 67.2244071,16.3864076 C67.2244071,19.6944524 70.3013839,21.2009636 73.1599602,21.2009636 C75.7967964,21.2009636 77.4444851,19.7762214 78.1203914,19.0396466 L78.1203914,20.8156683 L82.049598,20.8156683 L82.049598,11.7563223 C82.049598,9.62247963 82.049598,4.62476112 75.1295726,4.62476112" id="Shape"></path>
                    <path d="M20.8460111,21.0321925 C15.9316643,21.0321925 14.8403294,17.7581636 14.8403294,14.3827411 L14.8403294,5.19191059 L16.8874173,5.19191059 L16.8874173,14.2820018 C16.8874173,16.7887108 17.604065,19.2280423 20.8460111,19.2280423 L22.0134857,19.2280423 C25.2554317,19.2280423 25.9714116,16.7887108 25.9714116,14.2820018 L25.9714116,5.19191059 L28.0191674,5.19191059 L28.0191674,14.3827411 C28.0191674,17.7581636 26.9271645,21.0321925 22.0134857,21.0321925 L20.8460111,21.0321925 L20.8460111,21.0321925 Z" id="Shape"></path>
                    <path d="M38.1156854,6.99671496 C38.1023276,7.0137229 33.8137953,6.99671496 33.8137953,6.99671496 L33.8137953,17.056913 C33.8137953,18.4267065 34.617269,18.8479802 35.9817716,18.8479802 C36.7665443,18.8479802 38.1049991,18.8584466 38.1143496,18.842747 L38.1049991,20.6468972 C38.1070028,20.6305434 36.1367225,20.6468972 35.7934261,20.6468972 C32.8593781,20.6468972 31.7660395,19.2620582 31.7660395,17.056913 L31.7660395,6.99671496 L29.3202203,6.99671496 L29.3202203,5.19191059 L31.7660395,5.19191059 L31.7660395,0.746296056 L33.8137953,0.746296056 L33.8137953,5.19191059 L39.8448569,5.19191059 C39.8448569,5.19191059 38.9311811,5.90689833 38.1156854,6.99671496" id="Shape"></path>
                    <path d="M45.9507223,19.2286964 C49.8071287,19.2286964 52.1961771,16.38837 52.1961771,12.9122082 C52.1961771,9.43735472 49.8071287,6.59572 45.9507223,6.59572 C42.0949838,6.59572 39.7066033,9.43735472 39.7066033,12.9122082 C39.7066033,16.38837 42.0949838,19.2286964 45.9507223,19.2286964 M45.9507223,4.79091563 C50.7962762,4.79091563 54.243265,8.20035397 54.243265,12.9122082 C54.243265,17.6247166 50.7962762,21.0328467 45.9507223,21.0328467 C41.1058363,21.0328467 37.6588475,17.6247166 37.6588475,12.9122082 C37.6588475,8.20035397 41.1058363,4.79091563 45.9507223,4.79091563" id="Shape"></path>
                    <path d="M11.458794,11.2755208 L11.458794,10.340084 C11.458794,7.66787454 9.54862384,6.59899076 7.0253292,6.59899076 C5.18261614,6.59899076 3.61440655,7.16679438 2.21584144,8.33576336 L1.02231907,6.96662398 C2.5230716,5.56346872 4.97890919,4.79484054 7.0253292,4.79484054 C10.8450015,4.79484054 13.3008391,6.46488968 13.3008391,10.3734457 L13.3008391,14.1479007 C13.3008391,17.1543816 13.3689641,18.8584466 13.6080693,20.6285809 L11.6972313,20.6285809 C11.5616493,19.8606069 11.4928564,18.9918935 11.4928564,18.1231802 L11.4247315,18.1231802 C10.2652716,20.0941391 8.55947631,21.0282676 5.89993177,21.0282676 C3.20498897,21.0282676 0.339733802,19.7265058 0.339733802,16.4537852 C0.339733802,11.7432392 5.96738883,11.2755208 9.07108132,11.2755208 L10.4001857,11.2755208 L10.4001857,12.8788465 L9.2079991,12.8788465 C5.79707646,12.8788465 2.38615381,13.7141981 2.38615381,16.3537 C2.38615381,18.2572813 4.26226145,19.2260798 5.96738883,19.2260798 C10.3333965,19.2260798 11.458794,16.4864928 11.458794,13.9150227 L11.458794,12.8788465 L11.458794,11.2755208 L11.458794,11.2755208 Z" id="Shape"></path>
                </g>
            </g>
        </g>
    </g>
</svg>