<?xml version="1.0" encoding="utf-8"?>
<!-- Generator: Adobe Illustrator 19.0.0, SVG Export Plug-In . SVG Version: 6.00 Build 0)  -->
<svg version="1.1" id="Layer_1" xmlns="http://www.w3.org/2000/svg" xmlns:xlink="http://www.w3.org/1999/xlink" x="0px" y="0px"
	 viewBox="-281 388.5 24 16" style="enable-background:new -281 388.5 24 16;" xml:space="preserve">
<style type="text/css">
	.st0{fill:#005581;}
</style>
<title>A441B54B-D47D-40A9-B646-69EE28AAAAC4</title>
<desc>Created with sketchtool.</desc>
<g id="table-row--segment-analysis" transform="translate(0.000000, 74.000000)">
	<g id="Secondary-Button" transform="translate(618.000000, 2.000000)">
		<g id="cloud-download-copy" transform="translate(12.000000, 8.000000)">
			<path id="Shape" class="st0" d="M-891.6,310.5c-0.7-3.4-3.7-6-7.4-6c-2.9,0-5.4,1.6-6.6,4c-3.1,0.4-5.4,2.9-5.4,6
				c0,3.3,2.7,6,6,6h13c2.8,0,5-2.2,5-5C-887,312.9-889.1,310.7-891.6,310.5L-891.6,310.5z M-894,313.5l-5,5l-5-5h3v-4h4v4H-894
				L-894,313.5z"/>
		</g>
	</g>
</g>
</svg>
