<?xml version="1.0" encoding="UTF-8" standalone="no"?>
<svg width="18px" height="20px" viewBox="0 0 18 20" version="1.1" xmlns="http://www.w3.org/2000/svg" xmlns:xlink="http://www.w3.org/1999/xlink">
    <!-- Generator: sketchtool 3.8.1 (29687) - http://www.bohemiancoding.com/sketch -->
    <title>920C971E-CA9F-4F5D-AE22-DB5A8F8758D0</title>
    <desc>Created with sketchtool.</desc>
    <defs></defs>
    <g id="home" stroke="none" stroke-width="1" fill="none" fill-rule="evenodd">
        <g id="Home--WF1" transform="translate(-762.000000, -375.000000)">
            <g id="download-requests" transform="translate(104.000000, 356.000000)">
                <g id="date-range" transform="translate(655.000000, 17.000000)">
                    <g id="date-range-copy-3">
                        <path d="M9,11 L7,11 L7,13 L9,13 L9,11 L9,11 Z M13,11 L11,11 L11,13 L13,13 L13,11 L13,11 Z M17,11 L15,11 L15,13 L17,13 L17,11 L17,11 Z M19,4 L18,4 L18,2 L16,2 L16,4 L8,4 L8,2 L6,2 L6,4 L5,4 C3.89,4 3.01,4.9 3.01,6 L3,20 C3,21.1 3.89,22 5,22 L19,22 C20.1,22 21,21.1 21,20 L21,6 C21,4.9 20.1,4 19,4 L19,4 Z M19,20 L5,20 L5,9 L19,9 L19,20 L19,20 Z" id="Shape" fill="#76848F"></path>
                        <polygon id="Shape" points="0 0 24 0 24 24 0 24"></polygon>
                    </g>
                </g>
            </g>
        </g>
    </g>
</svg>