<?xml version="1.0" encoding="utf-8"?>
<!-- Generator: Adobe Illustrator 19.0.0, SVG Export Plug-In . SVG Version: 6.00 Build 0)  -->
<svg version="1.1" id="Layer_1" xmlns="http://www.w3.org/2000/svg" xmlns:xlink="http://www.w3.org/1999/xlink" x="0px" y="0px"
	 viewBox="-286 388.5 15 17.5" style="enable-background:new -286 388.5 15 17.5;" xml:space="preserve">
<style type="text/css">
	.st0{fill:#999085;}
</style>
<title>B64F1F43-4862-41F3-9957-EEC423845A7C</title>
<desc>Created with sketchtool.</desc>
<g id="Group-3" transform="translate(624.000000, 8.000000)">
	<g id="timer-copy">
		<path id="Shape" class="st0" d="M-900,380.5h-5v1.7h5V380.5L-900,380.5z M-903.3,391.3h1.7v-5h-1.7V391.3L-903.3,391.3z
			 M-896.7,385.8l1.3-1.2c-0.4-0.4-0.8-0.8-1.3-1.2l-1.2,1.2c-1.3-1-2.9-1.7-4.7-1.7c-4.2,0-7.5,3.3-7.5,7.5s3.3,7.5,7.5,7.5
			s7.5-3.3,7.5-7.5C-895,388.7-895.6,387.1-896.7,385.8L-896.7,385.8z M-902.5,396.3c-3.3,0-5.8-2.6-5.8-5.8s2.6-5.8,5.8-5.8
			s5.8,2.6,5.8,5.8S-899.3,396.3-902.5,396.3L-902.5,396.3z"/>
	</g>
</g>
</svg>
